<?xml version="1.0" encoding="UTF-8" standalone="no"?>
<svg
   xmlns:dc="http://purl.org/dc/elements/1.1/"
   xmlns:cc="http://creativecommons.org/ns#"
   xmlns:rdf="http://www.w3.org/1999/02/22-rdf-syntax-ns#"
   xmlns:svg="http://www.w3.org/2000/svg"
   xmlns="http://www.w3.org/2000/svg"
   viewBox="0 0 2666.6799 2666.6667"
   height="2666.6667"
   width="2666.6799"
   xml:space="preserve"
   id="svg2"
   version="1.1"><metadata
     id="metadata8"><rdf:RDF><cc:Work
         rdf:about=""><dc:format>image/svg+xml</dc:format><dc:type
           rdf:resource="http://purl.org/dc/dcmitype/StillImage" /></cc:Work></rdf:RDF></metadata><defs
     id="defs6" /><g
     transform="matrix(1.3333333,0,0,-1.3333333,0,2666.6667)"
     id="g10"><g
       transform="scale(0.1)"
       id="g12"><g
         transform="scale(1.22699)"
         id="g14"><path
           id="path16"
           style="fill:#ffffff;fill-opacity:1;fill-rule:nonzero;stroke:none"
           d="M 16300,0 H 0 V 16300 H 16300 V 0" /></g><g
         transform="scale(1.22699)"
         id="g18"><path
           id="path20"
           style="fill:none;stroke:#000000;stroke-width:48.90000153;stroke-linecap:butt;stroke-linejoin:miter;stroke-miterlimit:10;stroke-dasharray:none;stroke-opacity:1"
           d="m 0,1482.73 c 440.59,0 4592.14,8.8 4937.74,-41.81 67.5,-3.91 134.53,-75.71 61.08,-110.68 -594.05,-332.597 -1375.71,-170.41 -2004.34,-22.9 -96.05,55.91 -30.61,590.06 22.64,795.52 77.62,299.44 276.26,577.6 307.86,882.73 39.5,381.42 77.83,762.92 116.75,1144.34 33.37,1150.38 1019.05,1796.5 2056.4,1992.68 1826.89,383.37 1323.54,1669.69 715.75,2927.72 -222.36,667.93 -95.95,1402.37 368.72,1933.17 271.88,347.9 615.12,311.8 1008.49,294.4 303.65,425.2 694.61,440.4 1163.31,273.4 857.87,-248.6 1636.1,-1199.9 1153.47,-2080.6 -71.64,66.38 -89.65,189.38 -74.9,282.33 -368.95,-770.32 324.63,-848.83 -102.93,-1302.78 -101.63,-97.75 -228.53,-166.46 -328.36,-266.04 -178.98,-206.34 -334.72,-442.36 -447.11,-691.1 -45.72,-209.13 -266.26,-242.71 -364.8,-413.61 -21.59,-37.74 -184.59,-326.57 -81.42,-354.2 -383.39,105.46 -862.69,189.08 -1063.26,574.25 -171.13,359.74 -219.86,643.19 -669.23,710.76 -146.28,35.37 -248.96,145.83 -325.62,271.53 -480.76,649.92 61.36,1089.9 355.49,537.36 41.31,-165.18 155.14,-281.45 307.16,-356.21 -74.6,501.46 197.29,964 530.64,1316.22 271.23,222.79 337.91,258.89 441.56,609.29 124,-11.1 224.81,-204.9 312.42,-288.1 121.28,-115.21 255.34,-216.94 399.11,-302.44 -4.65,126.29 -9.37,252.54 -14.02,378.84 159.82,-149.1 724.78,-435.15 735.54,-622.4 -0.16,82.6 -286.47,-73.72 -305.79,-91.22 -372.86,-331.33 384.84,-963.86 145.07,-1305.21 -63.65,-51.82 -156.56,-23.29 -238.06,-13.84 -141.08,15.65 -230.81,-28.85 -336.51,-111.33 -114.27,-29.66 -124.86,113.12 -46.87,160.49 188.11,79.06 412.39,-19.13 606.36,43.87 71.89,25.08 130.49,77.29 186.97,128.25 143.92,130.87 359.08,276.85 293.8,498.41 -124.45,464.4 190.09,399.28 308.89,33.62 303.1,-639.2 7.9,-389.28 33.7,-887.54 -13.4,-121.27 -75.9,-181.17 -152.1,-270.74 -93.5,-109.95 -152.26,-312.07 -168.24,-454.69 -16.54,-146.86 121.03,-258.6 235.34,-352.16 218.5,-178.57 374.3,-411.58 576.7,-607.91 491.1,-464.63 959.5,-956.73 1464.3,-1406.37 401.7,-332.6 901.3,-563.97 1180.8,-1023.06 393.1,-543.2 366.4,-1205.88 367.9,-1842.8 2.6,-174.09 -8.1,-376.37 -149.1,-478.48 -78.1,-56.65 -179.5,-67.82 -275.9,-70.99 -648.8,14.91 -1990.3,-27.55 -2612.3,210.84 -149.7,47.43 -329.1,155.75 -488.6,149.3 -224.57,-9.12 -300.77,-393.15 -188.13,-555.26 80.73,-99.99 195.13,-30.72 170.93,92.34 -24.8,203.84 -60.5,405.3 8.3,604.73 194,811.26 362.5,1659.1 76.5,2472.07 -244.65,685.73 -529.57,1481.83 -1238.46,1804.16 -145.15,76.53 -364.14,153.38 -449.23,296.74 42.22,-274.33 312.96,-421.19 571.72,-405.22 246.7,-126.73 448.5,-355.18 628.61,-563.57 315.36,-485.33 640.16,-978.41 837.86,-1524.21 220.7,-511.01 290.7,-1074.42 497,-1585.75 417.6,-936.92 1099.1,-1149.31 2065.8,-1011.25 253.6,-2.44 2482.9,-2.12 3174.6,-4.89" /></g></g></g></svg>